,
Brought to you by  http://www.scenetime.com/signup.php
 
 Hottest scene tracker on the net !!!   
 
No fake torrents from scenebalance 
shame on those who comment fake before downloading my torrents

    seed back for speed


 



...................................NFO:.................................................General 
Complete name : Broken Hill 2010 2009 DVDRip x264 AC3-Freebee.mkv 
Format : Matroska 
File size : 716 MiB 
Duration : 1h 42mn 
Overall bit rate : 977 Kbps 
Encoded date : UTC 2011-05-17 18:47:32 

Video 
ID : 1 
Format : AVC 
Format/Info : Advanced Video Codec 
Format profile : High@L4.1 
Format settings, CABAC : Yes 
Format settings, ReFrames : 3 frames 
Codec ID : V_MPEG4/ISO/AVC 
Duration : 1h 42mn 
Bit rate : 749 Kbps 
Width : 720 pixels 
Height : 304 pixels 
Display aspect ratio : 2.35:1 
Frame rate : 23.976 fps 
Color space : YUV 
Chroma subsampling : 4:2:0 
Bit depth : 8 bits 
Scan type : Progressive 
Bits/(Pixel*Frame) : 0.143 
Stream size : 537 MiB (75%) 
Writing library : x264 core 115 r1995 c1e60b9 

Encoding settings : cabac=1 / ref=4 / deblock=1:0:0 / analyse=0x3:0x133 / me=umh
 / subme=9 / psy=1 / psy_rd=1.00:0.30 / mixed_ref=1 / me_range=48 / chroma_me=1
 / trellis=2 / 8x8dct=1 / cqm=0 / deadzone=21,11 / fast_pskip=0
 / chroma_qp_offset=-4 / threads=9 / sliced_threads=0 / nr=0 / decimate=0
 / interlaced=0 / bluray_compat=0 / constrained_intra=0 / bframes=3 / b_pyramid=1
 / b_adapt=2 / b_bias=0 / direct=3 / weightb=1 / open_gop=0 / weightp=2
 / keyint=250 / keyint_min=23 / scenecut=40 / intra_refresh=0 / rc_lookahead=60
 / rc=2pass / mbtree=1 / bitrate=749 / ratetol=1.0 / qcomp=0.60 / qpmin=0
 / qpmax=69 / qpstep=4 / cplxblur=20.0 / qblur=0.5 / ip_ratio=1.40 / aq=1:1.00 

Color primaries : BT.709-5, BT.1361, IEC 61966-2-4, SMPTE RP177 
Transfer characteristics : BT.709-5, BT.1361 
Matrix coefficients : BT.709-5, BT.1361, IEC 61966-2-4 709, SMPTE RP177 

Audio 
ID : 2 
Format : AC-3 
Format/Info : Audio Coding 3 
Mode extension : CM (complete main) 
Codec ID : A_AC3 
Duration : 1h 42mn 
Bit rate mode : Constant 
Bit rate : 224 Kbps 
Channel(s) : 6 channels 
Channel positions : Front: L C R, Side: L R, LFE 
Sampling rate : 48.0 KHz 
Bit depth : 16 bits 
Compression mode : Lossy 
Stream size : 164 MiB (23%) 
Language : English 

Text 
ID : 3 
Format : VobSub 
Muxing mode : zlib 
Codec ID : S_VOBSUB 
Codec ID/Info : The same subtitle format used on DVDs 
Language : English 


   
              Language.............: English
              Subtitle.............: English
              Imdb-Rating..........: 5.2/10
              Imdb.................: http://www.imdb.com/title/tt1212909/
              Video-Source.........: DVD
              Audio-Source.........: DVD
              Encoder..............: Freebee269

              Plot.................: Tommy, a gifted teenager composer,
 dreams of being accepted into the famous Sydney Conservatorium of Music.
 Unfortunately, a good band is hard to find in the middle of Outback
 Australia - until a strange incident involving flying watermelons leads
 him to a group of talented prison inmates.

              Director.............: Dagen Merrill
              Writer...............: Dagen Merrill
              Stars................: Alexa Vega, Timothy Hutton and Rhys Wakefield
              Genre................: Drama | Family | Music
   
                    
                    Sample Included
                    


                    
                    Greets: All P2P Groups!
                    

 
                                          
                           Respects                  
                    
                     SANTi, TOXiCiNK, LKRG 
                    NPW, FLAWL3SS, BDK, CM8
                      IMAGiNE, ViSiON, Rx  
                          Legion, *THC*